<?xml version="1.0" encoding="utf-8"?>
<!-- Generator: Adobe Illustrator 16.0.3, SVG Export Plug-In . SVG Version: 6.00 Build 0)  -->
<!DOCTYPE svg PUBLIC "-//W3C//DTD SVG 1.1//EN" "http://www.w3.org/Graphics/SVG/1.1/DTD/svg11.dtd">
<svg version="1.1" id="Layer_1" xmlns="http://www.w3.org/2000/svg" xmlns:xlink="http://www.w3.org/1999/xlink" x="0px" y="0px"
	 width="156px" height="32px" viewBox="0 0 156 32" enable-background="new 0 0 156 32" xml:space="preserve">
<g>
	<g>
		<path fill="#D6152C" d="M21.517,3.629l-1.683-1.742c-2.429-2.516-6.363-2.516-8.792,0L4.599,8.559l6.08,6.295L21.517,3.629z"/>
		<path fill="#0F8B3A" d="M14.344,20.915l-6.079,6.297l-6.443-6.674c-2.429-2.515-2.429-6.59,0-9.103l1.683-1.744L14.344,20.915z"/>
		<path fill="#FFAE3E" d="M27.384,22.29l1.684-1.742c2.43-2.517,2.43-6.591,0-9.105L22.624,4.77l-6.08,6.295L27.384,22.29z"/>
		<path fill="#CAD803" d="M9.33,28.371l1.683,1.742c2.429,2.516,6.364,2.516,8.791,0l6.445-6.672l-6.08-6.295L9.33,28.371z"/>
	</g>
	<g>
		<path fill="#141414" d="M74.303,24.014c4.005,0,5.786-1.79,6.374-5.244l0.937-5.504c0.588-3.454-0.583-5.244-4.589-5.244h-5.496
			c-4.006,0-5.787,1.79-6.374,5.244l-0.924,5.429l-0.013,0.075c-0.589,3.454,0.583,5.244,4.588,5.244H74.303z M76.776,12.819
			l-1.088,6.396c-0.27,1.582-0.97,2.143-2.434,2.143h-2.497c-1.456,0-1.967-0.556-1.708-2.118l1.098-6.445
			c0.272-1.563,0.972-2.112,2.428-2.112h2.497C76.536,10.683,77.046,11.237,76.776,12.819z"/>
		<path fill="#141414" d="M124.57,14.314c-0.007,0.162,0.096,0.291,0.251,0.312h8.845l-0.47,2.758h-8.792
			c-0.196,0-0.384,0.165-0.419,0.369l-0.253,1.487c-0.26,1.563,0.252,2.117,1.706,2.117h9.496l-0.242,1.424
			c-0.099,0.578-0.723,1.235-1.648,1.235l-9.557-0.001c-3.952,0-5.146-1.744-4.61-5.109l0.958-5.642
			c0.588-3.453,2.37-5.242,6.375-5.242l9.551-0.002l0.006,0.002c0.927,0,1.325,0.659,1.227,1.237l-0.242,1.422h-9.496
			c-1.454,0-2.153,0.552-2.426,2.113L124.57,14.314z"/>
		<path fill="#141414" d="M62.793,8.013L60.249,8.01c-0.488,0.006-0.951,0.416-1.037,0.921l-2.408,14.147
			c-0.086,0.504,0.23,0.912,0.708,0.933l3.149,0.003c0.497-0.005,0.968-0.422,1.056-0.936l2.3-13.513
			C64.097,9.021,63.876,8.013,62.793,8.013z"/>
		<path fill="#141414" d="M95.254,8.01h-10.14c-0.463,0-0.904,0.389-0.986,0.868l-2.425,14.246
			c-0.082,0.483,0.229,0.876,0.695,0.877H82.4h0.001h3.217c0.818,0,1-0.886,1-0.886l2.063-12.116
			c0.053-0.311,0.353-0.326,0.353-0.326h4.361c1.39,0.023,1.875,0.587,1.611,2.135l-1.752,10.293c0,0-0.124,0.915,0.694,0.915h3.217
			l0.004-0.015c0,0,0.857-0.07,0.994-0.877l1.68-9.871C100.431,9.8,99.26,8.01,95.254,8.01z"/>
		<path fill="#141414" d="M113.481,8.01h-10.14c-0.464,0-0.905,0.389-0.987,0.868L99.93,23.124
			c-0.082,0.483,0.229,0.876,0.695,0.877h0.003h0.001h3.216c0.818,0,1-0.886,1-0.886l2.063-12.116
			c0.053-0.311,0.354-0.326,0.354-0.326h4.361c1.39,0.023,1.874,0.587,1.611,2.135l-1.752,10.293c0,0-0.125,0.915,0.694,0.915h3.217
			l0.003-0.015c0,0,0.857-0.07,0.994-0.877l1.681-9.871C118.658,9.8,117.486,8.01,113.481,8.01z"/>
		<path fill="#141414" d="M52.538,8.01H42.453c-0.132,0.002-0.901,0.052-1.069,1.035L38.63,25.227
			c-0.303,1.777,4.605,1.472,5.182-1.581l0.734-4.318h6.065c1.413,0,5.149-0.508,5.737-3.962l0.578-3.395
			C57.515,8.518,53.95,8.01,52.538,8.01z M49.564,16.666c0.577,0,2.104-0.207,2.345-1.618
			C51.669,16.459,50.142,16.666,49.564,16.666z M51.908,15.048c-0.241,1.412-1.766,1.617-2.345,1.617h-4.207
			c-0.197,0-0.329-0.164-0.295-0.366l0.896-5.257c0.034-0.204,0.222-0.369,0.419-0.369h4.21c0.576,0,2.031,0.209,1.791,1.62
			L51.908,15.048z M52.378,12.292c0.24-1.411-1.216-1.619-1.793-1.619C51.162,10.673,52.618,10.881,52.378,12.292z"/>
		<path fill="#141414" d="M155.789,10.411l0.003-0.019l0.001-0.002l0,0l0.192-1.132c0.098-0.577-0.301-1.246-1.226-1.246
			L139.813,8.01c-0.463,0-0.905,0.389-0.986,0.868l-0.251,1.474c0,0-0.066,0.376,0.443,0.376h4.186
			c0.942,0.03,1.273,0.433,1.096,1.5l-1.753,10.277l-0.063,0.371c-0.022,0.129-0.016,0.245,0.011,0.353
			c0.078,0.308,0.342,0.527,0.714,0.654c1.378,0.472,4.244-0.322,4.687-2.658l1.533-9.054c0.194-1.032,0.666-1.419,1.616-1.443
			l4.312-0.001h0.001C155.705,10.727,155.776,10.482,155.789,10.411z"/>
	</g>
</g>
</svg>
